<svg id="레이어_1" data-name="레이어 1" xmlns="http://www.w3.org/2000/svg" viewBox="0 0 108 64.94"><defs><style>.cls-1,.cls-2{fill:#fff;}.cls-2{fill-rule:evenodd;}</style></defs><path class="cls-1" d="M90.27,58.1H84.41V47.86h5.41a2.21,2.21,0,0,1,.62.06,3,3,0,0,1,.61.22,5.54,5.54,0,0,1,.56.33,3.47,3.47,0,0,1,.44.39,2.62,2.62,0,0,1,.5.89,2.87,2.87,0,0,1,.17,1,2.81,2.81,0,0,1-.22,1.16,2.39,2.39,0,0,1-.67.94,2.42,2.42,0,0,1,.56.44,6.44,6.44,0,0,1,.44.61,2.58,2.58,0,0,1,.28.67,2.53,2.53,0,0,1,.11.66A2.45,2.45,0,0,1,93,56.33a2.52,2.52,0,0,1-.61.88,2.29,2.29,0,0,1-.9.61A2.11,2.11,0,0,1,90.27,58.1ZM89,49.91H87.14V52H89a1.05,1.05,0,1,0,0-2.1Zm.12,4h-2V56h2a1.06,1.06,0,0,0,1.06-1.05,1,1,0,0,0-1.06-1Z" transform="translate(-76.71 -41.06)"/><path class="cls-1" d="M95.68,58.1V47.86h2.84v7.75H104v2.54Z" transform="translate(-76.71 -41.06)"/><path class="cls-1" d="M111.8,47.86h-2.45L105.5,58.1h3l2.12-6.47,2.12,6.47h2.9Z" transform="translate(-76.71 -41.06)"/><path class="cls-1" d="M118.66,57.87a5.31,5.31,0,0,1-2-1.54l2.18-1.77a4.59,4.59,0,0,0,.94.83,2.29,2.29,0,0,0,1.18.27,2.4,2.4,0,0,0,1.06-.22,2.33,2.33,0,0,0,.83-.61,2.54,2.54,0,0,0,.56-.83,3.22,3.22,0,0,0,.22-1,2.7,2.7,0,0,0-.78-1.82,3.37,3.37,0,0,0-.83-.61A2.24,2.24,0,0,0,121,50.3a2.7,2.7,0,0,0-1.62.55L117.27,49a6.3,6.3,0,0,1,1.78-1.11,5,5,0,0,1,2-.39,5.52,5.52,0,0,1,2.12.45,5.12,5.12,0,0,1,1.73,1.16,5.79,5.79,0,0,1,1.17,1.71,5.46,5.46,0,0,1,0,4.2,5.47,5.47,0,0,1-2.9,2.88,5.51,5.51,0,0,1-2.12.44A4.41,4.41,0,0,1,118.66,57.87Z" transform="translate(-76.71 -41.06)"/><path class="cls-1" d="M133.28,52.73l4.07,5.42H134l-2.84-3.43v3.43h-2.85V47.86h2.85v3.43L134,47.86h3.52Z" transform="translate(-76.71 -41.06)"/><path class="cls-1" d="M144.55,54.94h-1.9v3.21h-2.79V47.86h4.63a4.66,4.66,0,0,1,1.45.28,4.05,4.05,0,0,1,1.23.72A3.57,3.57,0,0,1,148,50a3,3,0,0,1,.33,1.38,3.27,3.27,0,0,1-.33,1.44,4.72,4.72,0,0,1-.84,1.16,3.5,3.5,0,0,1-1.23.77A5.26,5.26,0,0,1,144.55,54.94Zm-.23-4.81h-1.61v2.21h1.61a1,1,0,0,0,.45-.11,1.09,1.09,0,0,0,.61-.6,1.24,1.24,0,0,0,0-.89,1.17,1.17,0,0,0-.28-.33.83.83,0,0,0-.39-.22A2.7,2.7,0,0,0,144.32,50.13Z" transform="translate(-76.71 -41.06)"/><path class="cls-1" d="M150.57,58.1V47.86h2.79V58.1Z" transform="translate(-76.71 -41.06)"/><path class="cls-1" d="M155.76,58.1V47.86h2.79v5.53l3.62-5.53h2.74V58.1h-2.74V52.62L158.6,58.1Z" transform="translate(-76.71 -41.06)"/><path class="cls-1" d="M172.61,52.73l4.07,5.42h-3.35l-2.84-3.43v3.43h-2.85V47.86h2.85v3.43l2.84-3.43h3.52Z" transform="translate(-76.71 -41.06)"/><path class="cls-1" d="M184.71,65.06h-108v-24h108ZM78.94,62.85H182.48V43.28H78.94Z" transform="translate(-76.71 -41.06)"/><path class="cls-2" d="M112,91.88,114.23,88h0l10.51,18H120.2l-6-10.23-6,10.23h-4.55L112,91.89ZM147.2,88h0l-.09.15-2.19,3.73h0L136.68,106h4.55l6-10.23,6,10.23h4.55L147.2,88Zm-16.49,18h0L120.2,88h4.54l6,10.22,6-10.22h4.55L133,102.11h0L130.71,106Z" transform="translate(-76.71 -41.06)"/><path class="cls-1" d="M130.48,76.53c0-2-1.91-3.47-4.9-3.47s-4.87,1.46-4.87,3.47S122.6,80,125.58,80,130.48,78.55,130.48,76.53Zm-1.8,0c0,1.25-1.3,2-3.1,2s-3.07-.79-3.07-2,1.29-2,3.07-2S128.68,75.3,128.68,76.53Z" transform="translate(-76.71 -41.06)"/><path class="cls-1" d="M140.2,80V73.18h-1.69v4l-6.41-4.17v6.82h1.69V75.94Z" transform="translate(-76.71 -41.06)"/></svg>