<svg id="레이어_1" data-name="레이어 1" xmlns="http://www.w3.org/2000/svg" viewBox="0 0 190 24"><defs><style>.cls-1,.cls-2{fill:#fff;}.cls-2{fill-rule:evenodd;}</style></defs><path class="cls-1" d="M49.27,78.56H43.41V68.33h5.41a2.21,2.21,0,0,1,.62.06,2.49,2.49,0,0,1,.61.22,5.54,5.54,0,0,1,.56.33,3.47,3.47,0,0,1,.44.39,2.57,2.57,0,0,1,.5.88,2.92,2.92,0,0,1,.17,1,2.81,2.81,0,0,1-.22,1.16,2.39,2.39,0,0,1-.67.94,2.42,2.42,0,0,1,.56.44,6.44,6.44,0,0,1,.44.61,2.93,2.93,0,0,1,.39,1.33,2.41,2.41,0,0,1-.22,1.1,2.48,2.48,0,0,1-.61.89,2.4,2.4,0,0,1-.9.61A2,2,0,0,1,49.27,78.56ZM48,70.38H46.14v2.1H48a1.05,1.05,0,1,0,0-2.1Zm.12,4h-2v2.1h2a1.06,1.06,0,0,0,1.06-1,1.09,1.09,0,0,0-.28-.72A1.12,1.12,0,0,0,48.1,74.36Z" transform="translate(-35.71 -61.53)"/><path class="cls-1" d="M54.68,78.56V68.33h2.84v7.74H63v2.55Z" transform="translate(-35.71 -61.53)"/><path class="cls-1" d="M70.8,68.33H68.35L64.5,78.56h3l2.12-6.47,2.12,6.47h2.9Z" transform="translate(-35.71 -61.53)"/><path class="cls-1" d="M77.66,78.34a5.33,5.33,0,0,1-2-1.55L77.89,75a4.07,4.07,0,0,0,.94.83,2.31,2.31,0,0,0,1.18.28,2.55,2.55,0,0,0,1.06-.22,2.33,2.33,0,0,0,.83-.61,2.54,2.54,0,0,0,.56-.83,3.22,3.22,0,0,0,.22-1,2.16,2.16,0,0,0-.22-1,2.07,2.07,0,0,0-.56-.82,2.93,2.93,0,0,0-.83-.61A2.24,2.24,0,0,0,80,70.77a2.7,2.7,0,0,0-1.62.55l-2.12-1.83a6.28,6.28,0,0,1,1.78-1.1,5,5,0,0,1,2-.39,5.7,5.7,0,0,1,2.12.44,5.42,5.42,0,0,1,1.73,1.16,6,6,0,0,1,1.17,1.72,5.46,5.46,0,0,1,0,4.2,5.25,5.25,0,0,1-1.17,1.72,5.42,5.42,0,0,1-1.73,1.16,5.7,5.7,0,0,1-2.12.44A4.41,4.41,0,0,1,77.66,78.34Z" transform="translate(-35.71 -61.53)"/><path class="cls-1" d="M92.28,73.2l4.07,5.42H93l-2.84-3.43v3.43H87.31V68.33h2.85v3.43L93,68.33h3.52Z" transform="translate(-35.71 -61.53)"/><path class="cls-1" d="M103.55,75.41h-1.9v3.21H98.86V68.33h4.63a4.39,4.39,0,0,1,1.45.28,4.05,4.05,0,0,1,1.23.72,3.52,3.52,0,0,1,.84,1.1,3.06,3.06,0,0,1,.33,1.39,3.22,3.22,0,0,1-.33,1.43,4.78,4.78,0,0,1-.84,1.17,3.65,3.65,0,0,1-1.23.77A5.26,5.26,0,0,1,103.55,75.41Zm-.23-4.81h-1.61v2.21h1.61a1,1,0,0,0,.45-.11,1.08,1.08,0,0,0,.61-.61,1.21,1.21,0,0,0,0-.88,1.17,1.17,0,0,0-.28-.33.83.83,0,0,0-.39-.22A2.7,2.7,0,0,0,103.32,70.6Z" transform="translate(-35.71 -61.53)"/><path class="cls-1" d="M109.57,78.56V68.33h2.79V78.56Z" transform="translate(-35.71 -61.53)"/><path class="cls-1" d="M114.76,78.56V68.33h2.79v5.53l3.62-5.53h2.74V78.56h-2.74V73.09l-3.57,5.47Z" transform="translate(-35.71 -61.53)"/><path class="cls-1" d="M131.61,73.2l4.07,5.42h-3.35l-2.84-3.43v3.43h-2.85V68.33h2.85v3.43l2.84-3.43h3.52Z" transform="translate(-35.71 -61.53)"/><path class="cls-1" d="M143.71,85.53h-108v-24h108ZM37.94,83.32H141.48V63.74H37.94Z" transform="translate(-35.71 -61.53)"/><path class="cls-2" d="M180,68.42l2.28-3.89h0l10.51,18H188.2l-6-10.22-6,10.22h-4.55L180,68.42Zm35.25-3.89h0l-.09.15-2.19,3.74h0l-8.24,14.11h4.55l6-10.22,6,10.22h4.55l-10.51-18Zm-16.49,18h0l-10.51-18h4.54l6,10.23,6-10.23h4.55L201,78.64h0l-2.28,3.88Z" transform="translate(-35.71 -61.53)"/><path class="cls-1" d="M158.06,73.18c0-2-1.91-3.46-4.9-3.46s-4.87,1.45-4.87,3.46,1.88,3.47,4.87,3.47S158.06,75.2,158.06,73.18Zm-1.8,0c0,1.25-1.3,2-3.1,2s-3.07-.79-3.07-2,1.28-2,3.07-2S156.26,72,156.26,73.18Z" transform="translate(-35.71 -61.53)"/><path class="cls-1" d="M167.78,76.65V69.84h-1.69v4l-6.41-4.16v6.81h1.69V72.6Z" transform="translate(-35.71 -61.53)"/></svg>